<svg version="1.0" xmlns="http://www.w3.org/2000/svg" width="512.000000pt" height="512.000000pt" viewBox="0 0 512.000000 512.000000" preserveAspectRatio="xMidYMid meet">

<g transform="translate(0.000000,512.000000) scale(0.100000,-0.100000)" fill="#ffffff" stroke="none">
<path d="M2315 4803 c-517 -63 -965 -274 -1318 -622 -377 -369 -602 -818 -672 -1335 -22 -163 -17 -519 10 -666 89 -494 300 -891 656 -1236 320 -310 739 -523 1189 -604 193 -35 431 -41 1560 -38 l1075 3 3 207 2 208 -475 2 -475 3 67 50 c162 120 388 365 516 560 77 118 197 364 241 495 89 264 120 477 113 770 -8 346 -80 633 -242 965 -342 701 -933 1131 -1688 1230 -108 14 -473 19 -562 8z m426 -313 c586 -60 1106 -372 1435 -862 30 -46 84 -140 119 -209 269 -538 269 -1180 0 -1718 -101 -200 -196 -334 -353 -495 -272 -278 -617 -467 -997 -545 -490 -102 -1039 5 -1453 283 -288 193 -511 447 -667 757 -270 538 -270 1180 0 1718 106 210 210 353 377 518 164 161 292 254 499 358 319 160 692 230 1040 195z" fill="#ffffff"/>
<path d="M2392 4260 c-180 -47 -329 -172 -412 -345 -49 -103 -64 -169 -63 -280 0 -180 60 -322 188 -451 65 -65 98 -90 166 -122 194 -93 384 -93 578 0 160 77 292 240 337 418 20 78 22 224 5 300 -30 128 -120 272 -225 359 -154 126 -376 173 -574 121z m261 -205 c203 -53 337 -221 337 -421 0 -84 -1 -85 -74 -58 -111 40 -212 57 -351 57 -144 0 -218 -11 -341 -52 -95 -32 -94 -32 -94 53 0 156 88 305 222 377 108 57 199 71 301 44z" fill="#ffffff"/>
<path d="M1393 3200 c-160 -24 -301 -105 -410 -233 -189 -224 -191 -583 -4 -810 89 -108 232 -198 361 -228 76 -17 222 -15 300 5 178 45 341 177 418 337 43 89 72 205 72 289 0 84 -29 200 -72 289 -75 157 -241 292 -409 335 -74 19 -192 26 -256 16z m160 -216 c12 -4 10 -15 -9 -68 -78 -216 -78 -502 1 -712 27 -71 25 -74 -49 -74 -218 0 -398 149 -437 364 -38 204 105 425 311 480 56 15 156 21 183 10z" fill="#ffffff"/>
<path d="M3545 3199 c-146 -22 -259 -80 -365 -188 -198 -201 -244 -482 -119 -739 33 -69 58 -102 123 -167 129 -128 272 -188 451 -188 112 0 178 14 280 63 427 205 494 775 127 1082 -54 45 -185 111 -252 126 -70 17 -179 21 -245 11z m200 -224 c208 -54 355 -275 317 -476 -40 -216 -218 -369 -428 -369 -85 0 -86 2 -59 74 79 210 79 502 0 712 -17 45 -20 64 -12 68 26 10 126 5 182 -9z" fill="#ffffff"/>
<path d="M2520 2770 c-105 -19 -172 -102 -172 -210 0 -124 88 -212 212 -212 124 0 212 88 212 212 0 138 -117 235 -252 210z" fill="#ffffff"/>
<path d="M2442 2119 c-234 -39 -448 -240 -508 -479 -21 -79 -23 -225 -5 -300 98 -405 542 -616 916 -435 166 81 304 254 346 435 17 76 15 222 -5 300 -45 177 -175 339 -336 419 -129 63 -267 83 -408 60z m-91 -615 c161 -36 409 -18 565 41 71 27 74 25 74 -49 0 -218 -149 -398 -364 -437 -160 -30 -347 58 -433 202 -38 64 -63 153 -63 225 0 84 1 85 79 58 37 -13 101 -31 142 -40z" fill="#ffffff"/>
</g>
</svg>